<?xml version="1.0" encoding="UTF-8"?>
<svg width="36px" height="30px" viewBox="0 0 36 30" version="1.1" xmlns="http://www.w3.org/2000/svg" xmlns:xlink="http://www.w3.org/1999/xlink">
    <!-- Generator: Sketch 55.2 (78181) - https://sketchapp.com -->
    <title>“</title>
    <desc>Created with Sketch.</desc>
    <g id="New-Website" stroke="none" stroke-width="1" fill="none" fill-rule="evenodd">
        <g id="Artboard" transform="translate(-1020.000000, -333.000000)" fill="#C70D0D" fill-rule="nonzero">
            <path d="M1056,333 L1056,338.136986 C1054.0115,338.657537 1052.49943,339.397255 1051.46375,340.356164 C1050.42807,341.315073 1049.59954,342.541088 1048.97814,344.034247 C1048.35673,345.527405 1048.04603,347.342455 1048.04603,349.479452 C1050.58689,349.479452 1052.4718,350.198623 1053.70081,351.636986 C1054.92981,353.07535 1055.5443,354.602732 1055.5443,356.219178 C1055.5443,358.136996 1054.86767,359.746569 1053.51438,361.047945 C1052.1611,362.349322 1050.58689,363 1048.79171,363 C1046.44418,363 1044.43499,362.006859 1042.7641,360.020548 C1041.0932,358.034237 1040.25777,355.315086 1040.25777,351.863014 C1040.25777,348.821903 1040.92059,345.972616 1042.24626,343.315068 C1043.57193,340.657521 1045.37398,338.383571 1047.65247,336.493151 C1049.93097,334.60273 1052.71345,333.438358 1056,333 Z M1035.74223,333 L1035.74223,338.136986 C1033.75373,338.657537 1032.24166,339.397255 1031.20598,340.356164 C1030.17031,341.315073 1029.34178,342.541088 1028.72037,344.034247 C1028.09896,345.527405 1027.78826,347.342455 1027.78826,349.479452 C1030.35674,349.479452 1032.24856,350.198623 1033.46375,351.636986 C1034.67895,353.07535 1035.28654,354.602732 1035.28654,356.219178 C1035.28654,358.136996 1034.6099,359.746569 1033.25662,361.047945 C1031.90333,362.349322 1030.32912,363 1028.53395,363 C1026.21403,363 1024.21175,362.006859 1022.52704,360.020548 C1020.84234,358.034237 1020,355.315086 1020,351.863014 C1020,348.821903 1020.66282,345.972616 1021.98849,343.315068 C1023.31416,340.657521 1025.11621,338.383571 1027.39471,336.493151 C1029.6732,334.60273 1032.45568,333.438358 1035.74223,333 Z" id="“"></path>
        </g>
    </g>
</svg>