<?xml version="1.0" encoding="UTF-8"?>
<svg width="196px" height="40px" viewBox="0 0 196 40" version="1.1" xmlns="http://www.w3.org/2000/svg" xmlns:xlink="http://www.w3.org/1999/xlink">
    <!-- Generator: Sketch 55.2 (78181) - https://sketchapp.com -->
    <title>logo</title>
    <desc>Created with Sketch.</desc>
    <g id="New-Website" stroke="none" stroke-width="1" fill="none" fill-rule="evenodd">
        <g id="Artboard-Copy-14" transform="translate(-135.000000, -65.000000)" fill="#230338">
            <g id="logo" transform="translate(135.000000, 64.000000)">
                <path d="M2.7188125,7.53658845 L2.7424375,5.41362816 C2.75327448,4.632068 2.71249857,3.85064456 2.620375,3.07444043 C2.59030802,2.74184927 2.39508783,2.44651874 2.100625,2.28815884 C1.86656199,2.12960715 1.59512808,2.03475227 1.313125,2.01296029 C1.15135338,2.03396871 0.987964542,1.98857434 0.8603125,1.88715523 C0.803088137,1.83059025 0.764609031,1.75786749 0.7500625,1.67879061 C0.7500625,1.53332852 0.935125,1.46256318 1.3013125,1.46256318 L3.526,1.54119134 L5.2624375,1.50187726 C5.549875,1.50187726 5.691625,1.59229964 5.691625,1.77707581 C5.691625,1.96185199 5.46325,2.11124549 5.0025625,2.11124549 C4.7426875,2.11124549 4.54975,2.37858123 4.4355625,2.89752708 C4.31389268,3.43948912 4.25314216,3.99330959 4.2544375,4.54871841 L4.2544375,5.27602888 L4.2150625,7.08447653 C4.18883075,7.30173861 4.23152266,7.52174307 4.337125,7.71350181 C4.4119375,7.80392419 4.597,7.85110108 4.8844375,7.85110108 L8.117125,7.83144404 L11.834125,7.87075812 C11.981125,7.87075812 12.054625,6.95998195 12.054625,5.1384296 L12.054625,4.07694946 C12.054625,3.09409747 11.85775,2.49128159 11.464,2.26850181 C11.3142064,2.18162095 11.1502691,2.12173666 10.9796875,2.09158845 C10.8386033,2.07040933 10.7000661,2.03484062 10.56625,1.98544043 C10.4574043,1.94279902 10.3888588,1.83456922 10.3969375,1.71810469 C10.3969375,1.58836823 10.652875,1.5215343 11.1844375,1.5215343 L13.0901875,1.56084838 L14.62975,1.5215343 C14.929,1.5215343 15.0825625,1.60802527 15.0825625,1.77707581 C15.0825625,1.94612635 14.9880625,2.03261733 14.803,2.03261733 C14.4882065,2.01067292 14.1806673,2.13378795 13.96825,2.366787 C13.7440005,2.62134558 13.6256773,2.95185658 13.6375,3.29066787 L13.5390625,11.0158845 L13.5390625,11.7431949 L13.6178125,13.5516426 C13.6178125,14.4060686 14.170375,14.8909422 15.2755,15.0062635 C15.433,15.0062635 15.5078125,15.0770289 15.5078125,15.222491 C15.5078125,15.3679531 15.4448125,15.3718845 15.3109375,15.3994043 C15.0578613,15.4338106 14.8023405,15.4469614 14.5470625,15.4387184 L13.0271875,15.3404332 L11.1765625,15.4387184 L10.8458125,15.4387184 C10.66075,15.4387184 10.5505,15.4111986 10.519,15.3600903 C10.4850408,15.3044576 10.4673128,15.2404632 10.4678125,15.1753141 C10.4678125,15.1006173 10.53475,15.0337834 10.6646875,14.9669495 C10.804185,14.898749 10.9507471,14.8460155 11.10175,14.8096931 C11.2670488,14.7652878 11.4203795,14.6847123 11.550625,14.5738087 C11.8301875,14.3772383 11.9640625,13.7600072 11.9640625,12.7260469 L12.0270625,9.2467509 C12.0389933,9.07415034 11.9458021,8.91131814 11.7908125,8.83395307 C11.5399943,8.73804818 11.2712742,8.69780253 11.0033125,8.71601083 C10.6489375,8.71601083 10.117375,8.71601083 9.4283125,8.75532491 L8.36125,8.77498195 L4.7426875,8.71601083 C4.60057284,8.69715196 4.45718656,8.74010129 4.3489375,8.83395307 C4.26023613,9.02405357 4.22615719,9.23501608 4.2505,9.4433213 L4.1875,11.8611372 L4.1875,12.7063899 C4.16976845,13.1315589 4.22299488,13.5567115 4.345,13.9644404 C4.51647995,14.3088077 4.7919377,14.590715 5.1325,14.7703791 C5.30989147,14.8512749 5.50517985,14.8851267 5.6995,14.8686643 C6.132625,14.8686643 6.353125,14.9394296 6.353125,15.0848917 C6.353125,15.3207762 6.1405,15.4387184 5.723125,15.4387184 L4.0890625,15.3600903 L1.958875,15.4583755 C1.344625,15.4583755 1.0375,15.3600903 1.0375,15.1635199 C1.0375,14.9787437 1.2383125,14.8608014 1.643875,14.8096931 C1.83008039,14.7839189 2.00283504,14.6983652 2.1360625,14.5659458 C2.31372559,14.4045006 2.43280555,14.1888293 2.4746875,13.9526462 C2.525875,13.7010361 2.5849375,13.0091083 2.6479375,11.8807942 C2.7109375,10.7524801 2.746375,9.67920578 2.746375,8.65703971 L2.7188125,7.53658845 Z" id="Path"></path>
                <path d="M25.2806875,8.46046931 L25.33975,5.05980144 C25.33975,4.70597473 25.33975,4.10840072 25.300375,3.27101083 C25.2996229,2.91125452 25.113717,2.57714157 24.8081875,2.38644404 C24.4800187,2.1725835 24.0975467,2.05665557 23.7056875,2.05227437 C23.497,2.05227437 23.3906875,1.93433213 23.3906875,1.69844765 C23.3906875,1.46256318 23.57575,1.4232491 23.9419375,1.4232491 L24.4735,1.46256318 L29.27725,1.56084838 L33.21475,1.48222022 C33.46675,1.48222022 33.6085,1.63161372 33.6085,1.93433213 C33.5827308,2.19828441 33.5433031,2.46072897 33.490375,2.72061372 C33.422303,3.06006732 33.3827903,3.40461158 33.37225,3.7506426 C33.37225,4.17130325 33.2738125,4.37966787 33.0690625,4.37966787 C32.8643125,4.37966787 32.7619375,4.22241155 32.7619375,3.90789892 C32.7568683,3.57721099 32.6387826,3.25817937 32.42725,3.00367509 C32.2376924,2.73205559 31.9316814,2.56473741 31.600375,2.55156318 C30.419125,2.46245126 29.5135,2.41658484 28.8835,2.4139639 L28.371625,2.4139639 C27.6904375,2.4139639 27.2966875,2.46114079 27.190375,2.55156318 C26.9935,2.72061372 26.8950625,4.17130325 26.8950625,6.89576895 C26.8950625,7.55231408 27.0210625,7.88648375 27.269125,7.89827798 L29.1985,7.89827798 C29.7247522,7.91328821 30.2513721,7.88699795 30.7735,7.81964982 C31.458625,7.68991336 31.8445,7.34788087 31.95475,6.79748375 C31.994125,6.5733935 32.08075,6.46331408 32.2106875,6.46331408 C32.340625,6.46331408 32.4233125,6.46331408 32.4469375,6.5222852 C32.4814448,6.60278479 32.4949901,6.69069357 32.4863125,6.77782671 L32.3288125,8.84181588 L32.387875,10.0408953 C32.387875,10.3672022 32.3445625,10.5323213 32.2500625,10.5323213 C32.0531875,10.5323213 31.9114375,10.375065 31.8169375,10.0605523 C31.7424327,9.70119958 31.5724228,9.36849582 31.32475,9.0973574 C30.8799781,8.87591589 30.382828,8.78071955 29.8875625,8.82215884 L28.4700625,8.82215884 L27.8400625,8.82215884 L27.70225,8.82215884 C27.16675,8.82215884 26.8950625,8.9479639 26.8950625,9.1956426 L26.8556875,12.0262563 L26.8556875,12.8125379 C26.8556875,13.7560758 27.017125,14.2750217 27.34,14.3851011 C27.6095198,14.4750608 27.8907155,14.5253858 28.17475,14.5344946 C30.1435,14.5344946 31.5675625,14.3772383 32.4469375,14.0627256 C33.2344375,13.7757329 33.695125,13.4730144 33.8644375,13.1585018 C34.03375,12.8439892 34.167625,12.6670758 34.2975625,12.6670758 C34.4275,12.6670758 34.5338125,12.7771552 34.5338125,13.0012455 C34.4899172,13.6608307 34.1854006,14.2759924 33.68725,14.7114079 C33.1241875,15.2893249 32.632,15.5763177 32.2106875,15.5763177 C31.2656875,15.5763177 30.2025625,15.5448664 29.0134375,15.4780325 C27.8243125,15.4111986 27.088,15.3797473 26.796625,15.3797473 L24.119125,15.5566606 C23.8435,15.5566606 23.725375,15.4898267 23.725375,15.3600903 L23.725375,15.1242058 C23.725375,15.0455776 23.7923125,14.9944693 23.92225,14.9669495 C24.1568687,14.925686 24.3830424,14.8459835 24.591625,14.731065 C24.9277433,14.5453885 25.1524462,14.2081224 25.1940625,13.8268412 C25.3223038,12.8693014 25.3710323,11.9028141 25.33975,10.9372563 L25.2806875,8.46046931 Z" id="Path"></path>
                <path d="M44.23975,8.46046931 L44.2988125,5.05980144 C44.2988125,4.70597473 44.2988125,4.10840072 44.2594375,3.27101083 C44.2586854,2.91125452 44.0727795,2.57714157 43.76725,2.38644404 C43.5081926,2.19731352 43.2013234,2.08428803 42.8813125,2.06013718 C42.6056875,2.06013718 42.452125,2.02868592 42.420625,1.98544043 C42.3845449,1.92206706 42.3668225,1.84992576 42.3694375,1.77707581 C42.3694375,1.54119134 42.546625,1.4232491 42.901,1.4232491 L43.4325625,1.46256318 L45.145375,1.54119134 L47.2125625,1.46256318 C47.437,1.46256318 47.54725,1.52939711 47.54725,1.65913357 C47.5617266,1.82066378 47.4643646,1.97134138 47.311,2.02475451 C47.1438416,2.08649695 46.9689352,2.12486392 46.79125,2.13876534 C46.5511016,2.1940107 46.3486346,2.3542897 46.24,2.57515162 C46.0379531,2.93546343 45.9321855,3.3416323 45.932875,3.75457401 C45.90925,4.27745126 45.8738125,5.72027798 45.8344375,8.0594657 C45.7950625,10.3986534 45.775375,11.7156751 45.775375,11.9908736 L45.775375,12.7771552 C45.775375,13.7206931 45.9368125,14.239639 46.2596875,14.3497184 C46.5291234,14.440006 46.8103677,14.4903397 47.0944375,14.4991119 C49.0631875,14.4991119 50.4806875,14.3418556 51.3469375,14.027343 C52.1344375,13.7403502 52.6069375,13.4376318 52.7644375,13.1231191 C52.9219375,12.8086065 53.0873125,12.6316931 53.21725,12.6316931 C53.3471875,12.6316931 53.4535,12.7417726 53.4535,12.9658628 C53.4096047,13.625448 53.1050881,14.2406097 52.6069375,14.6760253 C52.043875,15.2539422 51.5516875,15.540935 51.130375,15.540935 C50.185375,15.540935 49.12225,15.5094838 47.933125,15.4426498 C46.744,15.3758159 46.0076875,15.3443646 45.7163125,15.3443646 L43.255375,15.5016209 C42.861625,15.5016209 42.6844375,15.4229928 42.6844375,15.2657365 C42.6849677,15.1770413 42.7254589,15.0932965 42.7946875,15.0377148 C42.883388,14.9761978 42.9900134,14.9457805 43.097875,14.9512238 C43.2886336,14.9266715 43.4672769,14.8443483 43.60975,14.7153394 C43.8759797,14.4550686 44.0430579,14.1103079 44.08225,13.7403502 C44.2175858,12.8005909 44.2702868,11.8508083 44.23975,10.9018736 L44.23975,8.46046931 Z" id="Path"></path>
                <path d="M71.9125,1.50187726 L73.6646875,1.46256318 C73.9166875,1.46256318 74.0584375,1.55298556 74.0584375,1.73776173 C74.0584375,1.92253791 73.9166875,2.0208231 73.6253125,2.13090253 C73.4672387,2.21467865 73.3268559,2.32814599 73.211875,2.4650722 C73.0368833,2.66266999 72.8970523,2.88871275 72.7984375,3.13341155 L68.36875,13.1388448 C68.05375,13.8464982 67.7846875,14.4715921 67.5615625,15.0141264 C67.3410625,15.5605921 67.2071875,15.8633105 67.1678125,15.9301444 C67.1388217,15.9906097 67.0774514,16.0289068 67.0103125,16.028434 C66.7740625,16.028434 66.4826875,15.5881119 66.1361875,14.7114079 C65.7896875,13.834704 65.2384375,12.5766534 64.4824375,10.9372563 C63.7264375,9.29785921 63.147625,8.02015162 62.738125,7.10413357 C62.328625,6.18811552 62.0411875,5.51191336 61.864,5.07945848 C61.6868125,4.64700361 61.5175,4.26172563 61.36,3.9000361 C61.2048046,3.47617864 60.9857189,3.07845743 60.7103125,2.72061372 C60.5281286,2.51548358 60.3038639,2.35190296 60.05275,2.24098195 C59.8704721,2.15153781 59.6725881,2.0981384 59.47,2.08372563 C59.1038125,2.11124549 58.91875,1.99330325 58.91875,1.72989892 C58.91875,1.54512274 59.1038125,1.45470036 59.47,1.45470036 L61.635625,1.53332852 L62.9153125,1.49401444 C63.0999972,1.48228154 63.285423,1.49550575 63.4665625,1.53332852 C63.533771,1.56110225 63.5740773,1.63032178 63.565,1.70237906 C63.565,1.78493863 63.502,1.85963538 63.368125,1.92646931 C62.974375,2.13483394 62.7578125,2.35106137 62.7578125,2.56728881 C62.7556761,2.76609888 62.7795018,2.96433904 62.8286875,3.157 C62.9114666,3.43471239 63.0127551,3.70658621 63.131875,3.97080144 C63.289375,4.33642238 63.4508125,4.70597473 63.6161875,5.07159567 C63.7815625,5.43721661 64.0493125,6.03085921 64.423375,6.84859206 C64.7974375,7.66632491 65.1596875,8.48012635 65.5140625,9.27820217 C66.6165625,11.804787 67.2728125,13.0693899 67.4828125,13.0720108 C67.5484375,13.0720108 67.9264375,12.2791769 68.6168125,10.693509 C69.3071875,9.10784116 69.98575,7.45009747 70.6525,5.72027798 C71.321875,3.99045848 71.6565625,2.99450181 71.6565625,2.73240794 C71.6786068,2.5207428 71.5946255,2.31184994 71.432125,2.17414801 C71.2908636,2.06503518 71.1242624,1.99335872 70.9478125,1.96578339 C70.4753125,1.91467509 70.2390625,1.80852708 70.2390625,1.65127076 C70.2390625,1.56215884 70.2626875,1.50711913 70.3099375,1.48615162 C70.4218791,1.45845571 70.537377,1.44785165 70.6525,1.45470036 L71.9125,1.50187726 Z" id="Path"></path>
                <path d="M83.7919375,8.46046931 L83.851,5.05980144 C83.851,4.70597473 83.851,4.10840072 83.811625,3.27101083 C83.813437,2.9135608 83.6322648,2.57994873 83.33125,2.38644404 C83.0030812,2.1725835 82.6206092,2.05665557 82.22875,2.05227437 C82.0200625,2.05227437 81.91375,1.93433213 81.91375,1.69844765 C81.91375,1.46256318 82.0988125,1.4232491 82.465,1.4232491 L82.9965625,1.46256318 L87.8003125,1.56084838 L91.7378125,1.48222022 C91.9898125,1.48222022 92.1315625,1.63161372 92.1315625,1.93433213 C92.1057933,2.19828441 92.0663656,2.46072897 92.0134375,2.72061372 C91.9453655,3.06006732 91.9058528,3.40461158 91.8953125,3.7506426 C91.8953125,4.17130325 91.7929375,4.37966787 91.592125,4.37966787 C91.3913125,4.37966787 91.285,4.22241155 91.285,3.90789892 C91.2799308,3.57721099 91.1618451,3.25817937 90.9503125,3.00367509 C90.7607549,2.73205559 90.4547439,2.56473741 90.1234375,2.55156318 C88.9421875,2.46245126 88.0365625,2.41658484 87.4065625,2.4139639 L86.875,2.4139639 C86.1938125,2.4139639 85.8000625,2.46114079 85.69375,2.55156318 C85.496875,2.72061372 85.3984375,4.17130325 85.3984375,6.89576895 C85.3984375,7.55231408 85.5244375,7.88648375 85.7725,7.89827798 L87.701875,7.89827798 C88.2281272,7.91328821 88.7547471,7.88699795 89.276875,7.81964982 C89.962,7.68991336 90.347875,7.34788087 90.458125,6.79748375 C90.4975,6.5733935 90.584125,6.46331408 90.7140625,6.46331408 C90.844,6.46331408 90.9266875,6.46331408 90.9503125,6.5222852 C90.9848198,6.60278479 90.9983651,6.69069357 90.9896875,6.77782671 L90.8321875,8.84181588 L90.89125,10.0408953 C90.89125,10.3672022 90.8479375,10.5323213 90.7534375,10.5323213 C90.5565625,10.5323213 90.4148125,10.375065 90.3203125,10.0605523 C90.2458077,9.70119958 90.0757978,9.36849582 89.828125,9.0973574 C89.3833531,8.87591589 88.886203,8.78071955 88.3909375,8.82215884 L86.9734375,8.82215884 L86.3434375,8.82215884 L86.205625,8.82215884 C85.670125,8.82215884 85.3984375,8.9479639 85.3984375,9.1956426 L85.3590625,12.0262563 L85.3590625,12.8125379 C85.3590625,13.7560758 85.5205,14.2750217 85.843375,14.3851011 C86.1128109,14.4753887 86.3940552,14.5257224 86.678125,14.5344946 C88.646875,14.5344946 90.0709375,14.3772383 90.9503125,14.0627256 C91.7378125,13.7757329 92.1985,13.4730144 92.3678125,13.1585018 C92.537125,12.8439892 92.671,12.6670758 92.8009375,12.6670758 C92.930875,12.6670758 93.0371875,12.7771552 93.0371875,13.0012455 C92.9932922,13.6608307 92.6887756,14.2759924 92.190625,14.7114079 C91.6275625,15.2893249 91.135375,15.5763177 90.7140625,15.5763177 C89.7690625,15.5763177 88.7033125,15.543556 87.5168125,15.4780325 C86.3355625,15.4111986 85.591375,15.3797473 85.3,15.3797473 L82.6225,15.5566606 C82.346875,15.5566606 82.2090625,15.4898267 82.2090625,15.3600903 L82.2090625,15.1242058 C82.2090625,15.0455776 82.276,14.9944693 82.4059375,14.9669495 C82.6405562,14.925686 82.8667299,14.8459835 83.0753125,14.731065 C83.4114308,14.5453885 83.6361337,14.2081224 83.67775,13.8268412 C83.8059913,12.8693014 83.8547198,11.9028141 83.8234375,10.9372563 L83.7919375,8.46046931 Z" id="Path"></path>
                <path d="M101.746938,1.3249639 C101.920188,1.3249639 102.45175,1.35248375 103.353438,1.40359206 C104.255125,1.45470036 106.019125,1.48222022 108.65725,1.48222022 C111.295375,1.48222022 112.890063,1.44290614 113.441313,1.36427798 C113.553563,1.34988746 113.66528,1.39450525 113.736625,1.48222022 C113.783884,1.54484242 113.811308,1.6201436 113.815375,1.69844765 L113.9335,3.27101083 C113.947816,3.47859587 113.927862,3.68711885 113.874438,3.88824188 C113.82539,3.9813813 113.722753,4.03340868 113.6185,4.01797834 C113.516125,4.01797834 113.425563,3.88431047 113.354688,3.62483755 C113.300724,3.41158243 113.224167,3.20467193 113.126313,3.0076065 C112.929438,2.66557401 112.3585,2.49652347 111.4135,2.49652347 L108.854125,2.49652347 C108.539125,2.49652347 108.346188,2.55942599 108.275313,2.68523105 C108.171152,3.03150759 108.13374,3.39437231 108.165063,3.75457401 L108.165063,4.71776895 L108.106,11.9122455 L108.086313,13.1899531 C108.035504,13.5773539 108.130952,13.9697669 108.354063,14.2907473 C108.520738,14.4567099 108.717057,14.5900533 108.932875,14.6838881 C109.102574,14.7563976 109.281426,14.8053405 109.464438,14.8293502 C109.834563,14.85687 110.015688,14.9748123 110.015688,15.1831769 C110.015688,15.328639 109.984188,15.4190614 109.91725,15.4583755 C109.799223,15.5081192 109.670823,15.5283615 109.543188,15.5173466 L107.357875,15.3600903 L105.34975,15.4976895 C104.865438,15.4976895 104.621313,15.3915415 104.621313,15.1831769 C104.608906,15.0792234 104.654175,14.9767718 104.739438,14.9158412 C104.887271,14.8534573 105.044109,14.8149719 105.204063,14.8018303 L105.645063,14.731065 C106.047062,14.6742491 106.35696,14.3485448 106.393188,13.9447834 C106.527063,12.7915704 106.592688,10.3147834 106.590063,6.51442238 L106.570375,2.97615523 C106.570375,2.72847653 106.4995,2.58301444 106.353813,2.5122491 C105.879555,2.42935541 105.397421,2.4003403 104.916625,2.42575812 C104.276504,2.41874354 103.636452,2.4449884 102.999063,2.50438628 C102.720559,2.5170303 102.445054,2.56728506 102.180063,2.65377978 C102.068188,2.72902571 101.971925,2.82514013 101.896563,2.93684116 C101.77863,3.08898397 101.685601,3.25883209 101.620938,3.44006137 C101.559988,3.58957208 101.509982,3.74330042 101.471313,3.9000361 C101.431938,4.20275451 101.309875,4.35214801 101.09725,4.35214801 C100.9555,4.35214801 100.880597,4.24206859 100.880597,4.01797834 C100.878636,3.54182445 100.911537,3.06616064 100.979125,2.59480866 C101.046063,2.1662852 101.0815,1.92253791 101.089375,1.85570397 C101.083633,1.81264852 101.083633,1.76902296 101.089375,1.72596751 C101.089375,1.72596751 101.089375,1.67485921 101.109063,1.62768231 C101.111316,1.59336528 101.120703,1.55989295 101.136625,1.52939711 C101.156768,1.50532075 101.173953,1.47892361 101.187813,1.45076895 C101.203797,1.42296022 101.226898,1.39989443 101.25475,1.38393502 L101.353188,1.34462094 C101.482566,1.31728361 101.615473,1.31064851 101.746938,1.3249639 L101.746938,1.3249639 Z" id="Path"></path>
                <path d="M123.757563,7.53658845 L123.77725,5.41362816 L123.77725,4.50940433 C123.782454,4.04589384 123.760103,3.58248347 123.710313,3.12161733 C123.677781,2.78660585 123.477767,2.4907479 123.17875,2.33533574 C122.898504,2.17368213 122.584385,2.07945766 122.261313,2.06013718 C121.958125,2.06013718 121.8085,1.94612635 121.8085,1.75348736 C121.8085,1.56084838 121.993563,1.47042599 122.35975,1.47042599 L124.584438,1.54905415 L126.316938,1.50974007 C126.671313,1.50974007 126.8485,1.60016245 126.8485,1.78493863 C126.8485,1.89108664 126.545313,2.068 125.942875,2.3156787 C125.52025,2.48603971 125.31025,3.23955957 125.312875,4.57623827 L125.253813,11.849343 C125.253813,12.9501372 125.408688,13.7233141 125.718438,14.1688736 C125.910481,14.5398539 126.275363,14.7905982 126.691,14.837213 L127.08475,14.85687 C127.18045,14.8584776 127.274596,14.8813061 127.360375,14.923704 C127.449792,14.963184 127.504883,15.0543363 127.498188,15.1517256 C127.498188,15.3365018 127.332813,15.4269242 127.006,15.4269242 L125.135688,15.348296 L122.970063,15.4465812 C122.379438,15.4465812 122.084125,15.348296 122.084125,15.1517256 C122.084125,14.9669495 122.288875,14.8490072 122.694438,14.7978989 C122.880643,14.7721247 123.053398,14.686571 123.186625,14.5541516 C123.345497,14.4196708 123.459508,14.2400053 123.513438,14.0391372 C123.55675,13.8504296 123.611875,13.0562852 123.670938,11.6606354 C123.73,10.2649856 123.757563,9.26247653 123.757563,8.64524549 L123.757563,7.53658845 Z" id="Path"></path>
                <path d="M135.826,9.05018051 C135.80605,7.72631063 136.08885,6.41534311 136.652875,5.21705776 C137.216171,4.07077271 138.10312,3.11413089 139.204375,2.4650722 C140.440585,1.74139791 141.855039,1.37777705 143.287563,1.41538628 C144.107453,1.41831243 144.922776,1.53744331 145.709125,1.769213 C146.377261,1.95098097 147.029176,2.18767408 147.658188,2.47686643 L148.386625,2.85035018 C148.459876,2.83576759 148.527865,2.80182548 148.5835,2.75206498 C148.647854,2.69689441 148.727516,2.66261046 148.811875,2.65377978 C148.880581,2.6588052 148.945672,2.68646078 148.996938,2.73240794 C149.063875,2.78351625 149.099313,2.93290975 149.107188,3.17665704 C149.115063,3.42040433 149.138688,3.7506426 149.185938,4.17916606 C149.233188,4.60768953 149.272563,4.96544765 149.311938,5.22885199 C149.351313,5.49225632 149.371,5.66916968 149.371,5.72027798 C149.371,5.95616245 149.29225,6.07410469 149.13475,6.07410469 C149.016625,6.07410469 148.906375,5.98368231 148.800063,5.79890614 C147.529563,3.41385199 145.692063,2.22132491 143.287563,2.22132491 C141.782563,2.16705556 140.321998,2.73614995 139.251625,3.79388809 C138.182793,4.88859368 137.613059,6.37472054 137.676625,7.90220939 C137.626962,9.6288156 138.138029,11.3251385 139.1335,12.7378412 C139.664166,13.4436069 140.369844,13.9991463 141.181,14.3497184 C142.137638,14.7608996 143.171607,14.9620105 144.212875,14.9394296 C146.102875,14.9394296 147.691,13.9565776 148.97725,11.9908736 C149.041822,11.8930732 149.156013,11.8398667 149.272563,11.8532744 C149.390688,11.8532744 149.44975,11.9358339 149.44975,12.0970217 C149.44482,12.3029752 149.422428,12.5081417 149.382813,12.7103213 C149.335563,12.9501372 149.280438,13.2214043 149.2135,13.5162599 C149.146563,13.8111155 149.107188,13.9880289 149.095375,14.0548628 C149.054711,14.2171763 148.937051,14.3493387 148.780375,14.4086895 C148.071625,14.7520325 147.520375,15.007574 147.126625,15.1753141 C146.065123,15.6222358 144.923877,15.8495969 143.771875,15.8436534 C142.707421,15.8586204 141.646408,15.7195778 140.621875,15.4308556 C139.81238,15.2079409 139.049534,14.8417553 138.369625,14.3497184 C137.792872,13.9140479 137.295978,13.3820106 136.900938,12.7771552 C136.173548,11.67188 135.79876,10.3724338 135.826,9.05018051 Z" id="Path"></path>
                <path d="M159.71875,15.4387184 L158.025625,15.5173466 C157.631875,15.5173466 157.454688,15.4387184 157.454688,15.2814621 C157.44886,15.097564 157.571553,14.9342268 157.75,14.8883213 C158.230047,14.6773254 158.620366,14.3043124 158.8525,13.834704 C159.1675,13.2921697 159.955,11.6475307 161.215,8.900787 C162.475,6.15404332 163.606375,3.74671119 164.609125,1.67879061 C164.661252,1.5365542 164.74624,1.40859649 164.857188,1.30530686 C164.951608,1.24741914 165.061592,1.2199658 165.172188,1.2266787 C165.267431,1.21282188 165.363949,1.24158871 165.436,1.30530686 C165.525299,1.47476885 165.59783,1.65252385 165.652563,1.83604693 C165.758875,2.13876534 165.841563,2.366787 165.900625,2.52404332 L166.184125,3.31032491 C166.314063,3.66415162 166.526688,4.1948917 166.814125,4.88288809 C167.101563,5.57088448 167.763063,7.13951625 168.782875,9.52981227 C169.802688,11.9201083 170.405125,13.2803755 170.562625,13.6027509 C170.719227,13.9201292 170.940518,14.2013362 171.212313,14.4283466 C171.411558,14.6193978 171.661729,14.749067 171.932875,14.8018303 C172.106661,14.815249 172.278374,14.8482196 172.44475,14.9001155 C172.577802,14.9376685 172.664316,15.0655766 172.6495,15.2028339 C172.6495,15.3994043 172.472313,15.4976895 172.117938,15.4976895 L170.346063,15.3797473 L168.515125,15.4583755 C168.251694,15.4702631 167.987742,15.4544505 167.727625,15.4111986 C167.627047,15.3936129 167.554818,15.3047252 167.558313,15.2028339 C167.558685,15.0968866 167.619939,15.0005609 167.715813,14.9551552 C167.820457,14.8984851 167.933412,14.8586802 168.0505,14.837213 C168.177765,14.8144008 168.294749,14.752564 168.385188,14.6602996 C168.504336,14.5257634 168.561475,14.347481 168.542688,14.1688736 C168.446561,13.5916394 168.281314,13.0280292 168.0505,12.4901625 C167.817159,11.8179855 167.540969,11.1614089 167.223625,10.5244585 C167.1055,10.3003682 166.829875,10.1902888 166.416438,10.1902888 L164.03425,10.2296029 L162.990813,10.2296029 C162.617823,10.2047771 162.243235,10.2379339 161.880438,10.3278881 C161.709505,10.4153383 161.576473,10.5621456 161.506375,10.7406859 C161.407938,10.9490505 161.266188,11.2439061 161.081125,11.6134585 C160.896063,11.9830108 160.774,12.2464152 160.707063,12.3997401 C160.640125,12.553065 160.561375,12.7260469 160.470813,12.9501372 C160.321883,13.2578672 160.234925,13.5918024 160.214875,13.9329892 C160.196346,14.374099 160.507816,14.7607329 160.943313,14.837213 C161.427625,14.8765271 161.67175,15.0023321 161.67175,15.2303538 C161.676714,15.3045306 161.655849,15.3781408 161.612688,15.4387184 C161.532318,15.4944098 161.434063,15.5182349 161.337063,15.5055523 L159.71875,15.4387184 Z M163.34125,6.39648014 C162.962103,7.17187185 162.646083,7.9764773 162.39625,8.80250181 C162.377412,8.93038381 162.45156,9.053774 162.573438,9.0973574 C162.84566,9.15032449 163.123313,9.17012615 163.400313,9.15632852 L164.010625,9.15632852 L165.880938,9.13667148 C166.392813,9.13667148 166.64875,9.04231769 166.64875,8.85361011 C166.64875,8.66490253 166.329813,7.84585921 165.691938,6.39648014 C165.050125,4.94579061 164.640625,4.22241155 164.471313,4.22241155 C164.302,4.22241155 163.979125,4.95758484 163.349125,6.39648014 L163.34125,6.39648014 Z" id="Shape" fill-rule="nonzero"></path>
                <path d="M182.9815,15.4780325 L181.308063,15.5173466 C181.016688,15.5173466 180.871,15.4111986 180.871,15.2028339 C180.871,15.0848917 180.957625,15.0101949 181.126938,14.9787437 C181.354549,14.9174364 181.568367,14.8133616 181.756938,14.6720939 C182.031726,14.4674916 182.222167,14.1696884 182.292438,13.834704 C182.479825,12.5819461 182.590282,11.3189156 182.623188,10.0526895 C182.741313,7.91662455 182.800375,6.36371841 182.800375,5.39397112 C182.840071,4.60358786 182.677458,3.81613558 182.327875,3.1058917 C182.013475,2.54603876 181.434139,2.18562602 180.79225,2.15055957 C180.716964,2.15145537 180.645102,2.11920712 180.595791,2.06239814 C180.54648,2.00558916 180.524724,1.92998324 180.536313,1.85570397 C180.544499,1.76355788 180.595524,1.68058945 180.674125,1.63161372 C180.775957,1.55512783 180.901183,1.51622887 181.0285,1.5215343 L181.776625,1.54119134 L182.741313,1.50187726 C182.878833,1.5106485 183.012976,1.54815058 183.135063,1.61195668 C183.292563,1.68272202 183.387063,1.74562455 183.410688,1.80852708 C183.473329,1.91345885 183.545844,2.01219049 183.62725,2.10338267 C183.749313,2.23705054 183.902875,2.41789531 184.09975,2.64198556 C184.296625,2.86607581 184.473813,3.08230325 184.63525,3.29066787 C186.42025,5.61019856 188.807688,8.40805054 191.797563,11.6842238 C191.876313,11.7746462 191.97475,11.8807942 192.085,11.9987365 C192.19525,12.1166787 192.274,12.2071011 192.32125,12.2621408 C192.365744,12.3218625 192.414429,12.3783547 192.466938,12.4311913 C192.561438,12.5216137 192.632313,12.5687906 192.6835,12.5687906 C192.817375,12.5687906 192.880375,12.1756498 192.880375,11.3500542 L192.880375,9.05018051 L192.841,5.02048736 L192.841,4.88288809 C192.841,3.67725632 192.632313,2.91063177 192.214938,2.58301444 C192.095102,2.48886486 191.962541,2.41209846 191.821188,2.35499278 C191.714875,2.32354152 191.561313,2.28815884 191.364438,2.24884477 C190.828938,2.14269675 190.55725,1.99723466 190.55725,1.80852708 C190.55725,1.61981949 190.68325,1.5215343 190.951,1.5215343 L192.821313,1.54119134 L194.593188,1.50187726 C194.749736,1.49187492 194.906651,1.51463923 195.053875,1.56871119 C195.134127,1.60698004 195.184829,1.68828444 195.183827,1.77707581 C195.184039,1.86556849 195.13769,1.94767435 195.06175,1.99330325 C194.882001,2.09248691 194.691854,2.17159244 194.49475,2.22918773 C194.059,2.4650722 193.841125,3.20548736 193.841125,4.45043321 L193.841125,5.21705776 L193.624563,14.9472924 L193.624563,15.3404332 C193.624563,15.6431516 193.534,15.7925451 193.348938,15.7925451 C193.229713,15.7906749 193.116229,15.7411026 193.033938,15.6549458 C188.673813,10.5991552 186.07375,7.59555957 185.23375,6.64415884 C184.39375,5.69275812 183.923875,5.21705776 183.824125,5.21705776 C183.694188,5.21705776 183.62725,5.75172924 183.62725,6.8210722 C183.62725,7.89041516 183.603625,9.13667148 183.5485,10.5755668 C183.493375,12.0144621 183.473688,12.7928809 183.473688,12.9344116 C183.443455,13.4036073 183.548681,13.8716131 183.776875,14.2828845 C183.914164,14.5397106 184.152461,14.7277736 184.434438,14.8018303 C184.670688,14.8411444 184.891188,14.8843899 185.095938,14.9276354 C185.300688,14.9708809 185.399125,15.0691661 185.399125,15.2067653 C185.399125,15.3443646 185.379438,15.4308556 185.332188,15.4701697 C185.258341,15.5167559 185.171075,15.5375013 185.084125,15.5291408 L182.9815,15.4780325 Z" id="Path"></path>
                <text id="DIGITAL" font-family="Avenir-Medium, Avenir" font-size="12.1" font-weight="400" letter-spacing="1.51250006">
                    <tspan x="0.437249784" y="39.5">DIGITAL</tspan>
                </text>
            </g>
        </g>
    </g>
</svg>