<?xml version="1.0" encoding="UTF-8"?>
<svg width="24px" height="24px" viewBox="0 0 24 24" version="1.1" xmlns="http://www.w3.org/2000/svg" xmlns:xlink="http://www.w3.org/1999/xlink">
    <!-- Generator: Sketch 55.2 (78181) - https://sketchapp.com -->
    <title>digital-marketing</title>
    <desc>Created with Sketch.</desc>
    <g id="digital-marketing" stroke="none" stroke-width="1" fill="none" fill-rule="evenodd">
        <rect id="Rectangle" fill-opacity="0.01" fill="#FFFFFF" x="0" y="0" width="24" height="24"></rect>
        <path d="M17.154068,18.5584253 C16.6988545,18.5208505 16.3704269,18.4710893 16.2005481,18.3958684 L9.13182525,14.8507944 L9.13182525,18.7245745 C9.13182525,20.1138616 7.98111333,21.2411447 6.56907656,21.2411447 C5.22097229,21.2411447 3.96680074,20.2339364 3.70124836,18.9341518 L2.75585485,14.3031939 C2.10016293,13.8339016 1.7,13.0843954 1.7,12.269165 L1.7,9.0415388 C1.7,7.65225171 2.85071191,6.52496862 4.26274873,6.52496862 L9.0021074,6.52496862 L16.2140279,2.90848903 C16.5266112,2.77069716 16.842992,2.7 17.1539078,2.7 C18.2386131,2.7 19.0051315,3.5322054 19.0051315,4.68420411 L19.0051315,6.62345565 C20.905871,7.03785961 22.3,8.70420215 22.3,10.6554304 C22.3,12.6065319 20.9058492,14.2728485 19.0051315,14.6872481 L19.0051315,16.6266567 C19.0051315,17.1702844 18.8372132,17.6525908 18.515616,18.0144137 C18.4085887,18.1349448 18.2870548,18.2388012 18.1539078,18.3244995 C17.9669883,18.4251343 17.8176096,18.4885346 17.7057716,18.5147006 C17.595423,18.5405181 17.4115217,18.555093 17.154068,18.5584253 Z M8.28989717,8.33032576 L4.26274873,8.33032576 C3.85781337,8.33032576 3.53046875,8.65098988 3.53046875,9.0415388 L3.53046875,12.269165 C3.53046875,12.6597139 3.85781339,12.9803781 4.26274873,12.9803781 L8.28989717,12.9803781 L8.28989717,8.33032576 Z M5.49570908,18.5775672 C5.58649829,19.0218915 6.10181742,19.4357875 6.56907656,19.4357875 C6.97394955,19.4357875 7.3013565,19.115028 7.3013565,18.7245745 L7.3013565,14.7857352 L4.72166046,14.7857352 L5.49570908,18.5775672 Z M17.1745025,4.68404713 C17.1745025,4.53433156 17.1597543,4.50535714 17.1539078,4.50535714 C17.1079687,4.50535714 17.0393904,4.52212634 16.9749814,4.55004363 L10.1203659,8.00215937 L10.1203659,13.3085509 L16.961241,16.7540142 C17.0395051,16.7885789 17.1079735,16.8053467 17.1539078,16.8053467 C17.1647046,16.8053467 17.1539788,16.8115493 17.1449739,16.8189305 L17.1411057,16.8221466 C17.1524279,16.8095464 17.1633818,16.7983734 17.1745025,16.7883081 L17.1745025,4.68404713 Z M20.4695312,10.6554304 C20.4695312,9.70325784 19.8748676,8.86382761 19.0051315,8.50900123 L19.0051315,12.8017026 C19.8748544,12.4468828 20.4695312,11.6074809 20.4695312,10.6554304 Z" id="Combined-Shape" fill="#000000" fill-rule="nonzero"></path>
    </g>
</svg>