<?xml version="1.0" encoding="UTF-8"?>
<svg width="14px" height="20px" viewBox="0 0 14 20" version="1.1" xmlns="http://www.w3.org/2000/svg" xmlns:xlink="http://www.w3.org/1999/xlink">
    <!-- Generator: Sketch 55.2 (78181) - https://sketchapp.com -->
    <title>mobile</title>
    <desc>Created with Sketch.</desc>
    <g id="New-Website" stroke="none" stroke-width="1" fill="none" fill-rule="evenodd">
        <g id="mobile" transform="translate(-5.000000, -2.000000)" fill="#C70D0D" fill-rule="nonzero">
            <g transform="translate(5.000000, 2.000000)" id="Shape">
                <path d="M2,2 L2,18 L12,18 L12,2 L2,2 Z M1,0 L13,0 C13.5522847,0 14,0.44771525 14,1 L14,19 C14,19.5522847 13.5522847,20 13,20 L1,20 C0.44771525,20 0,19.5522847 0,19 L0,1 C0,0.44771525 0.44771525,0 1,0 Z M7,15 C7.55228475,15 8,15.4477153 8,16 C8,16.5522847 7.55228475,17 7,17 C6.44771525,17 6,16.5522847 6,16 C6,15.4477153 6.44771525,15 7,15 Z"></path>
            </g>
        </g>
    </g>
</svg>