<?xml version="1.0" encoding="UTF-8"?>
<svg width="178px" height="36px" viewBox="0 0 178 36" version="1.1" xmlns="http://www.w3.org/2000/svg" xmlns:xlink="http://www.w3.org/1999/xlink">
    <!-- Generator: Sketch 54.1 (76490) - https://sketchapp.com -->
    <title>helvetican-digital-logo</title>
    <desc>Created with Sketch.</desc>
    <g id="Logo" stroke="none" stroke-width="1" fill="none" fill-rule="evenodd">
        <g id="Artboard" transform="translate(-40.000000, -208.000000)">
            <g id="helvetican-digital-logo" transform="translate(40.000000, 207.000000)">
                <g id="main-copy-2" fill="#B38C6B">
                    <g id="HELVETICAN" transform="translate(0.585227, 0.811372)">
                        <g id="Group">
                            <path d="M1.88642045,6.0400722 L1.90789773,4.1101083 C1.91774953,3.39959907 1.88068052,2.68921412 1.79693182,1.98357401 C1.7695982,1.6812184 1.5921253,1.4127361 1.32443182,1.26877256 C1.11164727,1.12463466 0.864889161,1.03840295 0.608522727,1.01859206 C0.461457616,1.03769063 0.312922311,0.996423011 0.196875,0.904223827 C0.144852852,0.852801116 0.109871846,0.786689515 0.0966477273,0.714801444 C0.0966477273,0.582563177 0.264886364,0.518231047 0.597784091,0.518231047 L2.62022727,0.589711191 L4.19880682,0.553971119 C4.46011364,0.553971119 4.58897727,0.636173285 4.58897727,0.804151625 C4.58897727,0.972129964 4.38136364,1.10794224 3.96255682,1.10794224 C3.72630682,1.10794224 3.55090909,1.35097473 3.44710227,1.82274368 C3.33649334,2.31543645 3.2812656,2.81890961 3.28244318,3.32382671 L3.28244318,3.98501805 L3.24664773,5.62906137 C3.22280068,5.82657235 3.26161151,6.0265764 3.35761364,6.20090253 C3.425625,6.28310469 3.59386364,6.32599278 3.85517045,6.32599278 L6.79397727,6.30812274 L10.1730682,6.34386282 C10.3067045,6.34386282 10.3735227,5.51588448 10.3735227,3.8599278 L10.3735227,2.89494585 C10.3735227,2.00144404 10.1945455,1.4534296 9.83659091,1.25090253 C9.70041494,1.17191993 9.55138097,1.11747967 9.39630682,1.0900722 C9.26804842,1.07081846 9.14210558,1.03848326 9.02045455,0.993574007 C8.92150389,0.954809082 8.85918981,0.856418358 8.86653409,0.750541516 C8.86653409,0.632599278 9.09920455,0.571841155 9.58244318,0.571841155 L11.3149432,0.607581227 L12.7145455,0.571841155 C12.9865909,0.571841155 13.1261932,0.650469314 13.1261932,0.804151625 C13.1261932,0.957833935 13.0402841,1.03646209 12.8720455,1.03646209 C12.5858695,1.01651263 12.3062884,1.12843539 12.1131818,1.34025271 C11.9093186,1.5716696 11.8017521,1.87213414 11.8125,2.1801444 L11.7230114,9.20306859 L11.7230114,9.86425993 L11.7946023,11.5083032 C11.7946023,12.2850542 12.2969318,12.7258484 13.3015909,12.8306859 C13.4447727,12.8306859 13.5127841,12.8950181 13.5127841,13.0272563 C13.5127841,13.1594946 13.4555114,13.1630686 13.3338068,13.1880866 C13.1037375,13.2193651 12.871446,13.2313204 12.639375,13.2238267 L11.2576705,13.1344765 L9.57528409,13.2238267 L9.27460227,13.2238267 C9.10636364,13.2238267 9.00613636,13.1988087 8.9775,13.1523466 C8.94662801,13.1017714 8.93051163,13.0435947 8.93096591,12.9843682 C8.93096591,12.9164621 8.99181818,12.855704 9.10994318,12.7949458 C9.23675907,12.7329454 9.36999736,12.6850059 9.50727273,12.6519856 C9.65754438,12.6116171 9.79693594,12.5383666 9.91534091,12.4375451 C10.1694886,12.2588448 10.2911932,11.6977256 10.2911932,10.7577617 L10.3484659,7.59476534 C10.3593121,7.43785574 10.2745928,7.28982646 10.1336932,7.21949458 C9.90567664,7.13230832 9.66138564,7.09572137 9.41778409,7.11227437 C9.095625,7.11227437 8.61238636,7.11227437 7.98596591,7.14801444 L7.01590909,7.16588448 L3.72630682,7.11227437 C3.59711168,7.09512994 3.46676051,7.13417478 3.36835227,7.21949458 C3.28771466,7.39231322 3.25673381,7.58409732 3.27886364,7.7734657 L3.22159091,9.97148014 L3.22159091,10.7398917 C3.20547132,11.126409 3.25385898,11.5129113 3.36477273,11.883574 C3.52066359,12.1966351 3.77107973,12.4529145 4.08068182,12.6162455 C4.24194679,12.6897872 4.41948169,12.7205615 4.59613636,12.7055957 C4.98988636,12.7055957 5.19034091,12.7699278 5.19034091,12.9021661 C5.19034091,13.1166065 4.99704545,13.2238267 4.61761364,13.2238267 L3.13210227,13.1523466 L1.19556818,13.2416968 C0.637159091,13.2416968 0.357954545,13.1523466 0.357954545,12.9736462 C0.357954545,12.8056679 0.540511364,12.6984477 0.909204545,12.6519856 C1.07848217,12.6285544 1.23553186,12.5507783 1.35664773,12.4303971 C1.51815963,12.2836287 1.62641414,12.0875639 1.66448864,11.872852 C1.71102273,11.6441155 1.76471591,11.0150903 1.82198864,9.98935018 C1.87926136,8.96361011 1.91147727,7.98790614 1.91147727,7.05866426 L1.88642045,6.0400722 Z" id="Path"></path>
                            <path d="M22.3972159,6.8799639 L22.4509091,3.78844765 C22.4509091,3.466787 22.4509091,2.92353791 22.4151136,2.16227437 C22.4144299,1.83522318 22.2454245,1.53148413 21.9676705,1.35812274 C21.6693352,1.16370407 21.3216334,1.05831504 20.9653977,1.05433213 C20.7756818,1.05433213 20.6790341,0.947111913 20.6790341,0.73267148 C20.6790341,0.518231047 20.8472727,0.482490975 21.1801705,0.482490975 L21.6634091,0.518231047 L26.0304545,0.607581227 L29.61,0.536101083 C29.8390909,0.536101083 29.9679545,0.671913357 29.9679545,0.947111913 C29.944528,1.18706853 29.9086847,1.4256545 29.8605682,1.66191336 C29.7986846,1.97050754 29.7627639,2.2837296 29.7531818,2.59830325 C29.7531818,2.98072202 29.6636932,3.1701444 29.4775568,3.1701444 C29.2914205,3.1701444 29.1983523,3.02718412 29.1983523,2.74126354 C29.1937439,2.44063815 29.0863933,2.1506094 28.8940909,1.91924188 C28.7217658,1.67231506 28.443574,1.52020763 28.1423864,1.50823105 C27.0685227,1.42722022 26.2452273,1.38552347 25.6725,1.38314079 L25.2071591,1.38314079 C24.5878977,1.38314079 24.2299432,1.42602888 24.1332955,1.50823105 C23.9543182,1.66191336 23.8648295,2.98072202 23.8648295,5.45750903 C23.8648295,6.05436823 23.979375,6.35815884 24.2048864,6.36888087 L25.9588636,6.36888087 C26.4372747,6.38252654 26.9160201,6.3586263 27.3906818,6.29740072 C28.0135227,6.17945848 28.3643182,5.86851986 28.4645455,5.36815884 C28.5003409,5.16444043 28.5790909,5.06436823 28.6972159,5.06436823 C28.8153409,5.06436823 28.8905114,5.06436823 28.9119886,5.11797834 C28.9433589,5.19115979 28.9556729,5.27107686 28.9477841,5.35028881 L28.8046023,7.2266426 L28.8582955,8.3167148 C28.8582955,8.6133574 28.8189205,8.7634657 28.7330114,8.7634657 C28.5540341,8.7634657 28.4251705,8.62050542 28.3392614,8.33458484 C28.2715297,8.00790051 28.1169753,7.70544254 27.8918182,7.45895307 C27.4874801,7.2576426 27.0355255,7.17110048 26.5852841,7.20877256 L25.2966477,7.20877256 L24.7239205,7.20877256 L24.5986364,7.20877256 C24.1118182,7.20877256 23.8648295,7.32314079 23.8648295,7.54830325 L23.8290341,10.1215884 L23.8290341,10.8363899 C23.8290341,11.6941516 23.9757955,12.1659206 24.2693182,12.2659928 C24.5143362,12.3477744 24.7699687,12.3935244 25.0281818,12.4018051 C26.8179545,12.4018051 28.1125568,12.2588448 28.9119886,11.9729242 C29.6278977,11.7120217 30.0467045,11.4368231 30.200625,11.1509025 C30.3545455,10.8649819 30.47625,10.7041516 30.594375,10.7041516 C30.7125,10.7041516 30.8091477,10.8042238 30.8091477,11.0079422 C30.7692429,11.6075651 30.4924096,12.166803 30.0395455,12.5626354 C29.5276705,13.0880144 29.0802273,13.348917 28.6972159,13.348917 C27.838125,13.348917 26.8716477,13.3203249 25.790625,13.2595668 C24.7096023,13.1988087 24.0402273,13.1702166 23.7753409,13.1702166 L21.34125,13.3310469 C21.0906818,13.3310469 20.9832955,13.2702888 20.9832955,13.1523466 L20.9832955,12.9379061 C20.9832955,12.866426 21.0441477,12.8199639 21.1622727,12.7949458 C21.3755625,12.7574336 21.5811749,12.6849768 21.7707955,12.5805054 C22.0763576,12.4117086 22.2806329,12.1051031 22.3184659,11.7584838 C22.4350489,10.887993 22.4793476,10.0093683 22.4509091,9.13158845 L22.3972159,6.8799639 Z" id="Path"></path>
                            <path d="M39.6327273,6.8799639 L39.6864205,3.78844765 C39.6864205,3.466787 39.6864205,2.92353791 39.650625,2.16227437 C39.6499413,1.83522318 39.4809359,1.53148413 39.2031818,1.35812274 C38.9676751,1.18618591 38.6887031,1.08343545 38.3977841,1.06148014 C38.1472159,1.06148014 38.0076136,1.03288809 37.9789773,0.993574007 C37.9461772,0.93596185 37.9300659,0.870378849 37.9324432,0.804151625 C37.9324432,0.589711191 38.0935227,0.482490975 38.4156818,0.482490975 L38.8989205,0.518231047 L40.4560227,0.589711191 L42.3352841,0.518231047 C42.5393182,0.518231047 42.6395455,0.57898917 42.6395455,0.696931408 C42.652706,0.843777049 42.5641951,0.980756691 42.4247727,1.02931408 C42.2728106,1.08544357 42.1138047,1.12032263 41.9522727,1.13296029 C41.733956,1.18318334 41.5498951,1.32889152 41.4511364,1.52967509 C41.2674574,1.85723128 41.171305,2.22647571 41.1719318,2.60187726 C41.1504545,3.07722022 41.1182386,4.38888087 41.0824432,6.51541516 C41.0466477,8.64194946 41.02875,9.83924188 41.02875,10.0894224 L41.02875,10.8042238 C41.02875,11.6619856 41.1755114,12.1337545 41.4690341,12.2338267 C41.7139758,12.3159063 41.9696525,12.3616643 42.2278977,12.369639 C44.0176705,12.369639 45.3063068,12.2266787 46.0938068,11.9407581 C46.8097159,11.6798556 47.2392614,11.404657 47.3824432,11.1187365 C47.525625,10.8328159 47.6759659,10.6719856 47.7940909,10.6719856 C47.9122159,10.6719856 48.0088636,10.7720578 48.0088636,10.9757762 C47.9689588,11.5753991 47.6921256,12.134637 47.2392614,12.5304693 C46.7273864,13.0558484 46.2799432,13.3167509 45.8969318,13.3167509 C45.0378409,13.3167509 44.0713636,13.2881588 42.9903409,13.2274007 C41.9093182,13.1666426 41.2399432,13.1380505 40.9750568,13.1380505 L38.7378409,13.2810108 C38.3798864,13.2810108 38.2188068,13.2095307 38.2188068,13.0665704 C38.2192888,12.9859384 38.256099,12.9098068 38.3190341,12.859278 C38.3996709,12.8033534 38.4966031,12.7757014 38.5946591,12.7806498 C38.768076,12.7583295 38.930479,12.6834902 39.06,12.5662094 C39.302027,12.3295996 39.4539163,12.0161808 39.4895455,11.6798556 C39.612578,10.825529 39.660488,9.96209029 39.6327273,9.09942238 L39.6327273,6.8799639 Z" id="Path"></path>
                            <path d="M64.7897727,0.553971119 L66.3826705,0.518231047 C66.6117614,0.518231047 66.740625,0.600433213 66.740625,0.768411552 C66.740625,0.936389892 66.6117614,1.02574007 66.346875,1.12581227 C66.2031715,1.20197238 66.0755508,1.30512452 65.9710227,1.42960289 C65.8119393,1.60923725 65.6848203,1.81473066 65.5951705,2.03718412 L61.5681818,11.1330325 C61.2818182,11.7763538 61.0372159,12.3446209 60.834375,12.8378339 C60.6339205,13.3346209 60.5122159,13.6098195 60.4764205,13.6705776 C60.4500651,13.7255461 60.394274,13.7603616 60.3332386,13.7599278 C60.1184659,13.7599278 59.8535795,13.359639 59.5385795,12.5626354 C59.2235795,11.7656318 58.7224432,10.6219495 58.0351705,9.13158845 C57.3478977,7.64122744 56.8217045,6.47967509 56.4494318,5.64693141 C56.0771591,4.81418773 55.8158523,4.19945848 55.6547727,3.80631769 C55.4936932,3.4131769 55.3397727,3.06292419 55.1965909,2.73411552 C55.0555042,2.34879056 54.8563354,1.98722582 54.6059659,1.66191336 C54.4403442,1.47543141 54.2364672,1.32672176 54.0081818,1.22588448 C53.8424746,1.14457162 53.6625801,1.09602671 53.4784091,1.08292419 C53.1455114,1.10794224 52.9772727,1.00072202 52.9772727,0.761263538 C52.9772727,0.593285199 53.1455114,0.511083032 53.4784091,0.511083032 L55.4471591,0.582563177 L56.6105114,0.546823105 C56.7784065,0.536156834 56.9469754,0.548178839 57.1116477,0.582563177 C57.1727463,0.607812025 57.2093884,0.670738867 57.2011364,0.736245487 C57.2011364,0.811299639 57.1438636,0.879205776 57.0221591,0.939963899 C56.6642045,1.12938628 56.4673295,1.32595668 56.4673295,1.52252708 C56.4653874,1.70326351 56.4870471,1.88348184 56.5317614,2.05862816 C56.6070151,2.31109396 56.6990956,2.55825199 56.8073864,2.79844765 C56.9505682,3.13083032 57.0973295,3.466787 57.2476705,3.79916968 C57.3980114,4.13155235 57.6414205,4.67122744 57.9814773,5.41462094 C58.3215341,6.15801444 58.6508523,6.89783394 58.9730114,7.6233574 C59.9752841,9.92025271 60.571875,11.0698917 60.7627841,11.0722744 C60.8224432,11.0722744 61.1660795,10.3515162 61.7936932,8.91 C62.4213068,7.46848375 63.0381818,5.96144404 63.6443182,4.38888087 C64.2528409,2.81631769 64.5571023,1.91090253 64.5571023,1.67263538 C64.5771425,1.48021253 64.5007959,1.29030992 64.3530682,1.16512635 C64.2246487,1.06593287 64.0731931,1.00077245 63.9127841,0.975703971 C63.4832386,0.929241877 63.2684659,0.832743682 63.2684659,0.689783394 C63.2684659,0.608772563 63.2899432,0.558736462 63.3328977,0.53967509 C63.4346628,0.514496986 63.5396609,0.504856929 63.6443182,0.511083032 L64.7897727,0.553971119 Z" id="Path"></path>
                            <path d="M75.5892614,6.8799639 L75.6429545,3.78844765 C75.6429545,3.466787 75.6429545,2.92353791 75.6071591,2.16227437 C75.6088063,1.83731979 75.4441044,1.53403609 75.1704545,1.35812274 C74.8721193,1.16370407 74.5244175,1.05831504 74.1681818,1.05433213 C73.9784659,1.05433213 73.8818182,0.947111913 73.8818182,0.73267148 C73.8818182,0.518231047 74.0500568,0.482490975 74.3829545,0.482490975 L74.8661932,0.518231047 L79.2332386,0.607581227 L82.8127841,0.536101083 C83.041875,0.536101083 83.1707386,0.671913357 83.1707386,0.947111913 C83.1473121,1.18706853 83.1114687,1.4256545 83.0633523,1.66191336 C83.0014687,1.97050754 82.965548,2.2837296 82.9559659,2.59830325 C82.9559659,2.98072202 82.8628977,3.1701444 82.6803409,3.1701444 C82.4977841,3.1701444 82.4011364,3.02718412 82.4011364,2.74126354 C82.396528,2.44063815 82.2891774,2.1506094 82.096875,1.91924188 C81.9245499,1.67231506 81.6463581,1.52020763 81.3451705,1.50823105 C80.2713068,1.42722022 79.4480114,1.38552347 78.8752841,1.38314079 L78.3920455,1.38314079 C77.7727841,1.38314079 77.4148295,1.42602888 77.3181818,1.50823105 C77.1392045,1.66191336 77.0497159,2.98072202 77.0497159,5.45750903 C77.0497159,6.05436823 77.1642614,6.35815884 77.3897727,6.36888087 L79.14375,6.36888087 C79.6221611,6.38252654 80.1009065,6.3586263 80.5755682,6.29740072 C81.1984091,6.17945848 81.5492045,5.86851986 81.6494318,5.36815884 C81.6852273,5.16444043 81.7639773,5.06436823 81.8821023,5.06436823 C82.0002273,5.06436823 82.0753977,5.06436823 82.096875,5.11797834 C82.1282452,5.19115979 82.1405592,5.27107686 82.1326705,5.35028881 L81.9894886,7.2266426 L82.0431818,8.3167148 C82.0431818,8.6133574 82.0038068,8.7634657 81.9178977,8.7634657 C81.7389205,8.7634657 81.6100568,8.62050542 81.5241477,8.33458484 C81.4564161,8.00790051 81.3018617,7.70544254 81.0767045,7.45895307 C80.6723665,7.2576426 80.2204118,7.17110048 79.7701705,7.20877256 L78.4815341,7.20877256 L77.9088068,7.20877256 L77.7835227,7.20877256 C77.2967045,7.20877256 77.0497159,7.32314079 77.0497159,7.54830325 L77.0139205,10.1215884 L77.0139205,10.8363899 C77.0139205,11.6941516 77.1606818,12.1659206 77.4542045,12.2659928 C77.6991463,12.3480724 77.9548229,12.3938303 78.2130682,12.4018051 C80.0028409,12.4018051 81.2974432,12.2588448 82.096875,11.9729242 C82.8127841,11.7120217 83.2315909,11.4368231 83.3855114,11.1509025 C83.5394318,10.8649819 83.6611364,10.7041516 83.7792614,10.7041516 C83.8973864,10.7041516 83.9940341,10.8042238 83.9940341,11.0079422 C83.9541293,11.6075651 83.677296,12.166803 83.2244318,12.5626354 C82.7125568,13.0880144 82.2651136,13.348917 81.8821023,13.348917 C81.0230114,13.348917 80.0541477,13.3191336 78.9755114,13.2595668 C77.9016477,13.1988087 77.2251136,13.1702166 76.9602273,13.1702166 L74.5261364,13.3310469 C74.2755682,13.3310469 74.1502841,13.2702888 74.1502841,13.1523466 L74.1502841,12.9379061 C74.1502841,12.866426 74.2111364,12.8199639 74.3292614,12.7949458 C74.5425511,12.7574336 74.7481636,12.6849768 74.9377841,12.5805054 C75.2433462,12.4117086 75.4476216,12.1051031 75.4854545,11.7584838 C75.6020376,10.887993 75.6463362,10.0093683 75.6178977,9.13158845 L75.5892614,6.8799639 Z" id="Path"></path>
                            <path d="M91.9119886,0.393140794 C92.0694886,0.393140794 92.5527273,0.418158845 93.3724432,0.464620939 C94.1921591,0.511083032 95.7957955,0.536101083 98.1940909,0.536101083 C100.592386,0.536101083 102.042102,0.500361011 102.543239,0.428880866 C102.645284,0.415798574 102.746846,0.456360204 102.811705,0.536101083 C102.854667,0.593030354 102.879598,0.661485981 102.883295,0.73267148 L102.990682,2.16227437 C103.003696,2.35098804 102.985557,2.54055438 102.936989,2.7233935 C102.8924,2.8080657 102.799094,2.85536332 102.704318,2.84133574 C102.61125,2.84133574 102.52892,2.71981949 102.464489,2.48393502 C102.415431,2.29006673 102.345834,2.10196628 102.256875,1.92281588 C102.077898,1.61187726 101.558864,1.45819495 100.699773,1.45819495 L98.3730682,1.45819495 C98.0867045,1.45819495 97.9113068,1.51537906 97.846875,1.62974729 C97.7521836,1.94454415 97.7181731,2.27442116 97.7466477,2.60187726 L97.7466477,3.47750903 L97.6929545,10.0179422 L97.6750568,11.1794946 C97.628867,11.5316771 97.7156379,11.8884162 97.9184659,12.1802166 C98.0699893,12.3310917 98.2484606,12.452313 98.4446591,12.5376173 C98.5989306,12.6035351 98.7615234,12.6480286 98.9278977,12.6698556 C99.264375,12.6948736 99.4290341,12.8020939 99.4290341,12.9915162 C99.4290341,13.1237545 99.4003977,13.2059567 99.3395455,13.2416968 C99.2322481,13.2869184 99.1155209,13.3053205 98.9994886,13.2953069 L97.0128409,13.1523466 L95.1872727,13.2774368 C94.7469886,13.2774368 94.5250568,13.1809386 94.5250568,12.9915162 C94.5137778,12.8970131 94.5549317,12.8038752 94.6324432,12.7484838 C94.7668369,12.6917711 94.909417,12.6567845 95.0548295,12.6448375 L95.4557386,12.5805054 C95.8211923,12.5288546 96.1029183,12.2327598 96.1358523,11.865704 C96.2575568,10.8173285 96.3172159,8.56570397 96.3148295,5.11083032 L96.2969318,1.89422383 C96.2969318,1.66906137 96.2325,1.5368231 96.1000568,1.47249097 C95.6689132,1.39713308 95.2306104,1.37075571 94.7935227,1.39386282 C94.2115948,1.38748592 93.6297287,1.41134489 93.0502841,1.46534296 C92.7970987,1.47683752 92.5466396,1.52252367 92.3057386,1.60115523 C92.2040349,1.66956062 92.1165227,1.75693736 92.0480114,1.85848375 C91.9408002,1.99679541 91.8562279,2.15120278 91.7974432,2.31595668 C91.7420347,2.4518755 91.6965745,2.59162854 91.6614205,2.73411552 C91.625625,3.00931408 91.5146591,3.14512635 91.3213636,3.14512635 C91.1925,3.14512635 91.1244886,3.04505415 91.1244886,2.84133574 C91.1226238,2.40846857 91.1525334,1.97604692 91.2139773,1.54754513 C91.2748295,1.15797834 91.3070455,0.936389892 91.3142045,0.875631769 C91.3089842,0.83649045 91.3089842,0.79683085 91.3142045,0.757689531 C91.3142045,0.757689531 91.3142045,0.711227437 91.3321023,0.66833935 C91.3341511,0.637142051 91.3426846,0.606712658 91.3571591,0.57898917 C91.3754713,0.557101569 91.3910938,0.533104171 91.4036932,0.507509025 C91.4182242,0.482228355 91.4392256,0.461259457 91.4645455,0.446750903 L91.5540341,0.41101083 C91.6716508,0.386158709 91.7924757,0.380126808 91.9119886,0.393140794 L91.9119886,0.393140794 Z" id="Path"></path>
                            <path d="M111.921648,6.0400722 L111.939545,4.1101083 L111.939545,3.28808664 C111.944277,2.86671347 111.923957,2.44543131 111.878693,2.02646209 C111.849119,1.7219062 111.667288,1.45294443 111.395455,1.31166065 C111.140686,1.16470282 110.855123,1.07904422 110.56142,1.06148014 C110.285795,1.06148014 110.149773,0.957833935 110.149773,0.782707581 C110.149773,0.607581227 110.318011,0.525379061 110.650909,0.525379061 L112.673352,0.596859206 L114.248352,0.561119134 C114.570511,0.561119134 114.731591,0.6433213 114.731591,0.811299639 C114.731591,0.907797834 114.455966,1.06862816 113.908295,1.29379061 C113.524091,1.44866426 113.333182,2.13368231 113.335568,3.34884477 L113.281875,9.96075812 C113.281875,10.9614801 113.42267,11.6643682 113.704261,12.0694224 C113.878847,12.4066771 114.210557,12.6346265 114.588409,12.6770036 L114.946364,12.6948736 C115.033364,12.696335 115.118951,12.7170883 115.196932,12.7556318 C115.27822,12.7915227 115.328303,12.8743884 115.322216,12.9629242 C115.322216,13.1309025 115.171875,13.2131047 114.874773,13.2131047 L113.174489,13.1416245 L111.205739,13.2309747 C110.668807,13.2309747 110.400341,13.1416245 110.400341,12.9629242 C110.400341,12.7949458 110.586477,12.6877256 110.95517,12.6412635 C111.124448,12.6178324 111.281498,12.5400563 111.402614,12.4196751 C111.547043,12.2974198 111.650689,12.1340875 111.699716,11.9514801 C111.739091,11.7799278 111.789205,11.0579783 111.842898,9.78920578 C111.896591,8.52043321 111.921648,7.60906137 111.921648,7.04794224 L111.921648,6.0400722 Z" id="Path"></path>
                            <path d="M122.892955,7.41606498 C122.874818,6.21254691 123.131909,5.02075826 123.644659,3.93140794 C124.156746,2.88933062 124.963064,2.01965624 125.964205,1.42960289 C127.088032,0.771717168 128.373899,0.441152752 129.676193,0.47534296 C130.421548,0.478003092 131.162751,0.586303896 131.877614,0.79700361 C132.48501,0.962247221 133.07766,1.17742277 133.649489,1.44032491 L134.311705,1.7798556 C134.378296,1.7665987 134.440105,1.73574223 134.490682,1.69050542 C134.549185,1.64035035 134.621605,1.60918313 134.698295,1.60115523 C134.760755,1.60572379 134.819929,1.63086523 134.866534,1.67263538 C134.927386,1.71909747 134.959602,1.85490975 134.966761,2.07649819 C134.97392,2.29808664 134.995398,2.59830325 135.038352,2.98787004 C135.081307,3.37743682 135.117102,3.70267148 135.152898,3.94212996 C135.188693,4.18158845 135.206591,4.34241877 135.206591,4.38888087 C135.206591,4.6033213 135.135,4.71054152 134.991818,4.71054152 C134.884432,4.71054152 134.784205,4.62833935 134.687557,4.46036101 C133.532557,2.29212996 131.862102,1.20801444 129.676193,1.20801444 C128.308011,1.15867866 126.980226,1.6760372 126.007159,2.63761733 C125.035493,3.63280423 124.517554,4.98382865 124.575341,6.37245487 C124.530193,7.94209689 124.994799,9.48420864 125.899773,10.7684838 C126.382196,11.410089 127.023722,11.9151248 127.761136,12.2338267 C128.630807,12.6076278 129.570779,12.7904559 130.517386,12.7699278 C132.235568,12.7699278 133.679318,11.876426 134.848636,10.0894224 C134.907338,10.0005129 135.011148,9.95214333 135.117102,9.96433213 C135.224489,9.96433213 135.278182,10.0393863 135.278182,10.1859206 C135.2737,10.373151 135.253343,10.5596661 135.21733,10.7434657 C135.174375,10.9614801 135.124261,11.2080866 135.063409,11.4761372 C135.002557,11.7441877 134.966761,11.9050181 134.956023,11.9657762 C134.919056,12.1133339 134.812092,12.2334816 134.669659,12.2874368 C134.025341,12.5995668 133.524205,12.8318773 133.16625,12.9843682 C132.201248,13.3906607 131.163752,13.5973526 130.116477,13.5919495 C129.148792,13.6055558 128.184234,13.4791535 127.252841,13.2166787 C126.516936,13.014029 125.82344,12.681133 125.205341,12.2338267 C124.68102,11.8377626 124.229298,11.3540923 123.87017,10.8042238 C123.208907,9.79942816 122.868191,8.61811344 122.892955,7.41606498 Z" id="Path"></path>
                            <path d="M144.613636,13.2238267 L143.074432,13.2953069 C142.716477,13.2953069 142.555398,13.2238267 142.555398,13.0808664 C142.5501,12.9136864 142.661639,12.765198 142.823864,12.7234657 C143.26027,12.5316513 143.615105,12.1925485 143.826136,11.7656318 C144.1125,11.2724188 144.828409,9.77729242 145.973864,7.28025271 C147.119318,4.783213 148.147841,2.59472924 149.059432,0.714801444 C149.10682,0.585495614 149.184082,0.469170418 149.284943,0.375270758 C149.37078,0.322645563 149.470765,0.297687975 149.571307,0.303790614 C149.657892,0.291193502 149.745636,0.31734517 149.811136,0.375270758 C149.892318,0.529327111 149.958255,0.690922569 150.008011,0.857761733 C150.104659,1.13296029 150.17983,1.34025271 150.233523,1.483213 L150.49125,2.19801444 C150.609375,2.51967509 150.80267,3.00216606 151.063977,3.62761733 C151.325284,4.25306859 151.926648,5.67909747 152.85375,7.85209386 C153.780852,10.0250903 154.328523,11.2616968 154.471705,11.5547653 C154.61407,11.8432911 154.815244,12.0989338 155.06233,12.3053069 C155.243462,12.4789898 155.47089,12.5968709 155.717386,12.6448375 C155.875374,12.6570363 156.031477,12.6870096 156.182727,12.7341877 C156.303684,12.7683268 156.382332,12.8846069 156.368864,13.0093863 C156.368864,13.1880866 156.207784,13.2774368 155.885625,13.2774368 L154.27483,13.1702166 L152.610341,13.2416968 C152.370859,13.2525037 152.130902,13.2381286 151.894432,13.1988087 C151.802997,13.1828217 151.737335,13.1020147 151.740511,13.0093863 C151.74085,12.9130705 151.796535,12.8255017 151.883693,12.7842238 C151.978824,12.7327055 152.081511,12.6965193 152.187955,12.6770036 C152.30365,12.6562652 152.409999,12.60005 152.492216,12.5161733 C152.600533,12.3938676 152.652477,12.2317927 152.635398,12.0694224 C152.54801,11.544664 152.397786,11.032291 152.187955,10.5433213 C151.975826,9.93225137 151.724745,9.3353635 151.43625,8.75631769 C151.328864,8.55259928 151.078295,8.45252708 150.702443,8.45252708 L148.536818,8.48826715 L147.588239,8.48826715 C147.249158,8.46569824 146.908623,8.49584077 146.578807,8.57761733 C146.423413,8.65711751 146.302476,8.79057872 146.23875,8.95288809 C146.149261,9.14231047 146.020398,9.41036101 145.852159,9.74631769 C145.68392,10.0822744 145.572955,10.3217329 145.512102,10.4611191 C145.45125,10.6005054 145.379659,10.7577617 145.29733,10.9614801 C145.161939,11.2412347 145.082887,11.5448121 145.064659,11.8549819 C145.047814,12.2559909 145.330969,12.6074762 145.726875,12.6770036 C146.167159,12.7127437 146.389091,12.8271119 146.389091,13.0344043 C146.393604,13.1018378 146.374635,13.1687561 146.335398,13.2238267 C146.262335,13.2744553 146.173012,13.2961144 146.08483,13.2845848 L144.613636,13.2238267 Z M147.906818,5.00361011 C147.562139,5.70851166 147.274848,6.43997115 147.047727,7.19090253 C147.030601,7.30715889 147.09801,7.41933179 147.208807,7.45895307 C147.456282,7.50710497 147.708694,7.52510648 147.960511,7.51256318 L148.515341,7.51256318 L150.215625,7.49469314 C150.680966,7.49469314 150.913636,7.40891697 150.913636,7.23736462 C150.913636,7.06581227 150.623693,6.32122744 150.043807,5.00361011 C149.460341,3.68480144 149.088068,3.02718412 148.934148,3.02718412 C148.780227,3.02718412 148.486705,3.69552347 147.913977,5.00361011 L147.906818,5.00361011 Z" id="Shape" fill-rule="nonzero"></path>
                        </g>
                        <path d="M165.761591,13.2595668 L164.240284,13.2953069 C163.975398,13.2953069 163.842955,13.1988087 163.842955,13.0093863 C163.842955,12.9021661 163.921705,12.8342599 164.075625,12.8056679 C164.282545,12.749934 164.476924,12.6553206 164.648352,12.5268953 C164.89816,12.3408933 165.071288,12.070163 165.13517,11.7656318 C165.305523,10.6267609 165.405938,9.47855146 165.435852,8.32743682 C165.543239,6.38555957 165.596932,4.97382671 165.596932,4.09223827 C165.633019,3.37370803 165.485189,2.65784232 165.167386,2.01216606 C164.881568,1.50320885 164.354899,1.17556091 163.771364,1.14368231 C163.702922,1.14449668 163.637593,1.11518008 163.592765,1.06353556 C163.547937,1.01189103 163.528158,0.943158375 163.538693,0.875631769 C163.546135,0.791862591 163.592521,0.716436752 163.663977,0.671913357 C163.756551,0.602380736 163.870393,0.567018042 163.986136,0.571841155 L164.66625,0.589711191 L165.543239,0.553971119 C165.668257,0.561944975 165.790206,0.596037777 165.901193,0.654043321 C166.044375,0.718375451 166.130284,0.775559567 166.151761,0.832743682 C166.208708,0.928136205 166.274631,1.01789224 166.348636,1.10079422 C166.459602,1.22231047 166.599205,1.3867148 166.778182,1.59043321 C166.957159,1.79415162 167.118239,1.99072202 167.265,2.1801444 C168.887727,4.28880866 171.058125,6.83231047 173.776193,9.81064982 C173.847784,9.89285199 173.937273,9.98935018 174.0375,10.0965704 C174.137727,10.2037906 174.209318,10.2859928 174.252273,10.3360289 C174.292722,10.3903213 174.336981,10.4416779 174.384716,10.4897112 C174.470625,10.5719134 174.535057,10.6148014 174.581591,10.6148014 C174.703295,10.6148014 174.760568,10.2574007 174.760568,9.50685921 L174.760568,7.41606498 L174.724773,3.75270758 L174.724773,3.62761733 C174.724773,2.53158845 174.535057,1.83465704 174.155625,1.5368231 C174.046684,1.45123257 173.926174,1.38144494 173.79767,1.32953069 C173.701023,1.30093863 173.56142,1.26877256 173.382443,1.23303249 C172.895625,1.1365343 172.648636,1.00429603 172.648636,0.832743682 C172.648636,0.661191336 172.763182,0.571841155 173.006591,0.571841155 L174.706875,0.589711191 L176.31767,0.553971119 C176.459987,0.54487809 176.602637,0.565572913 176.736477,0.614729242 C176.809433,0.6495191 176.855526,0.723432197 176.854602,0.804151625 C176.854808,0.88459951 176.812672,0.959241208 176.743636,1.00072202 C176.580229,1.09088899 176.407367,1.1628031 176.228182,1.21516245 C175.832045,1.42960289 175.633977,2.10270758 175.633977,3.23447653 L175.633977,3.93140794 L175.437102,12.7770758 L175.437102,13.1344765 C175.437102,13.4096751 175.354773,13.5454874 175.186534,13.5454874 C175.078148,13.5437871 174.974981,13.4987214 174.90017,13.4203971 C170.93642,8.82422383 168.572727,6.09368231 167.809091,5.22877256 C167.045455,4.36386282 166.618295,3.93140794 166.527614,3.93140794 C166.409489,3.93140794 166.348636,4.41747292 166.348636,5.38960289 C166.348636,6.36173285 166.327159,7.49469314 166.277045,8.80277978 C166.226932,10.1108664 166.209034,10.8185199 166.209034,10.9471841 C166.18155,11.3737257 166.27721,11.7991855 166.484659,12.1730686 C166.609467,12.4065469 166.8261,12.5775133 167.082443,12.6448375 C167.297216,12.6805776 167.49767,12.7198917 167.683807,12.7592058 C167.869943,12.7985199 167.959432,12.88787 167.959432,13.0129603 C167.959432,13.1380505 167.941534,13.2166787 167.89858,13.2524188 C167.831446,13.2947698 167.752113,13.3136293 167.673068,13.3060289 L165.761591,13.2595668 Z" id="Path"></path>
                    </g>
                </g>
                <path d="M1.2225,28.212 L3.9395,28.212 C4.48950275,28.212 4.97166459,28.2743327 5.386,28.399 C5.8003354,28.5236673 6.15966514,28.690499 6.464,28.8995 C6.76833485,29.108501 7.02133232,29.3486653 7.223,29.62 C7.42466767,29.8913347 7.58416608,30.1699986 7.7015,30.456 C7.81883392,30.7420014 7.90316641,31.0279986 7.9545,31.314 C8.00583359,31.6000014 8.0315,31.8639988 8.0315,32.106 C8.0315,32.6046692 7.93983425,33.086831 7.7565,33.5525 C7.57316575,34.018169 7.30183513,34.4324982 6.9425,34.7955 C6.58316487,35.1585018 6.13766932,35.4499989 5.606,35.67 C5.07433067,35.8900011 4.46017015,36 3.7635,36 L1.2225,36 L1.2225,28.212 Z M2.2785,35.01 L3.6095,35.01 C4.05683557,35.01 4.48033133,34.9495006 4.88,34.8285 C5.27966866,34.7074994 5.62983183,34.5260012 5.9305,34.284 C6.23116817,34.0419988 6.46949912,33.7395018 6.6455,33.3765 C6.82150088,33.0134982 6.9095,32.5900024 6.9095,32.106 C6.9095,31.8566654 6.86916707,31.5651683 6.7885,31.2315 C6.70783293,30.8978317 6.55566778,30.5806682 6.332,30.28 C6.10833221,29.9793318 5.79850198,29.724501 5.4025,29.5155 C5.00649802,29.306499 4.49316982,29.202 3.8625,29.202 L2.2785,29.202 L2.2785,35.01 Z M10.9245,28.212 L11.9805,28.212 L11.9805,36 L10.9245,36 L10.9245,28.212 Z M21.9905,31.644 L21.9905,35.483 C21.7998324,35.6003339 21.5835012,35.7029996 21.3415,35.791 C21.0994988,35.8790004 20.8483346,35.9541664 20.588,36.0165 C20.3276654,36.0788336 20.063668,36.1246665 19.796,36.154 C19.528332,36.1833335 19.2771678,36.198 19.0425,36.198 C18.3824967,36.198 17.7940026,36.0880011 17.277,35.868 C16.7599974,35.6479989 16.3236684,35.3510019 15.968,34.977 C15.6123316,34.6029981 15.3410009,34.1685025 15.154,33.6735 C14.9669991,33.1784975 14.8735,32.6560027 14.8735,32.106 C14.8735,31.5266638 14.9743323,30.9876692 15.176,30.489 C15.3776677,29.9903308 15.6563316,29.5576685 16.012,29.191 C16.3676684,28.8243315 16.7948308,28.536501 17.2935,28.3275 C17.7921692,28.118499 18.338497,28.014 18.9325,28.014 C19.6511703,28.014 20.2378311,28.1038324 20.6925,28.2835 C21.1471689,28.4631676 21.5284985,28.7106651 21.8365,29.026 L21.0885,29.829 C20.7658317,29.5209985 20.4248351,29.3065006 20.0655,29.1855 C19.7061649,29.0644994 19.328502,29.004 18.9325,29.004 C18.4851644,29.004 18.0818351,29.0864992 17.7225,29.2515 C17.3631649,29.4165008 17.0551679,29.6383319 16.7985,29.917 C16.541832,30.1956681 16.343834,30.5238314 16.2045,30.9015 C16.065166,31.2791686 15.9955,31.6806645 15.9955,32.106 C15.9955,32.5460022 16.0724992,32.9548314 16.2265,33.3325 C16.3805008,33.7101686 16.5931653,34.0383319 16.8645,34.317 C17.1358347,34.5956681 17.4548315,34.8138325 17.8215,34.9715 C18.1881685,35.1291675 18.5878312,35.208 19.0205,35.208 C19.3945019,35.208 19.7483317,35.173167 20.082,35.1035 C20.4156683,35.033833 20.6998322,34.9330007 20.9345,34.801 L20.9345,32.634 L19.2075,32.634 L19.2075,31.644 L21.9905,31.644 Z M25.2905,28.212 L26.3465,28.212 L26.3465,36 L25.2905,36 L25.2905,28.212 Z M31.3515,29.202 L28.8435,29.202 L28.8435,28.212 L34.9155,28.212 L34.9155,29.202 L32.4075,29.202 L32.4075,36 L31.3515,36 L31.3515,29.202 Z M38.8425,28.212 L39.7995,28.212 L43.1325,36 L41.9005,36 L41.1195,34.075 L37.4125,34.075 L36.6425,36 L35.4105,36 L38.8425,28.212 Z M40.7345,33.151 L39.2825,29.576 L39.2605,29.576 L37.7865,33.151 L40.7345,33.151 Z M45.5195,28.212 L46.5755,28.212 L46.5755,35.01 L50.1505,35.01 L50.1505,36 L45.5195,36 L45.5195,28.212 Z" id="DIGITAL" fill="#313638" fill-rule="nonzero"></path>
                <rect id="Rectangle" fill="#E0E0E0" x="62" y="32" width="116" height="1"></rect>
            </g>
        </g>
    </g>
</svg>