<?xml version="1.0" encoding="UTF-8"?>
<svg width="22px" height="20px" viewBox="0 0 22 20" version="1.1" xmlns="http://www.w3.org/2000/svg" xmlns:xlink="http://www.w3.org/1999/xlink">
    <!-- Generator: Sketch 55.2 (78181) - https://sketchapp.com -->
    <title>digital-marketing</title>
    <desc>Created with Sketch.</desc>
    <g id="New-Website" stroke="none" stroke-width="1" fill="none" fill-rule="evenodd">
        <g id="digital-marketing" transform="translate(-1.000000, -2.000000)" fill="#C70D0D" fill-rule="nonzero">
            <g transform="translate(1.000000, 2.000000)" id="Combined-Shape">
                <path d="M16.154068,16.5584253 C15.6988545,16.5208505 15.3704269,16.4710893 15.2005481,16.3958684 L8.13182525,12.8507944 L8.13182525,16.7245745 C8.13182525,18.1138616 6.98111333,19.2411447 5.56907656,19.2411447 C4.22097229,19.2411447 2.96680074,18.2339364 2.70124836,16.9341518 L1.75585485,12.3031939 C1.10016293,11.8339016 0.7,11.0843954 0.7,10.269165 L0.7,7.0415388 C0.7,5.65225171 1.85071191,4.52496862 3.26274873,4.52496862 L8.0021074,4.52496862 L15.2140279,0.90848903 C15.5266112,0.77069716 15.842992,0.7 16.1539078,0.7 C17.2386131,0.7 18.0051315,1.5322054 18.0051315,2.68420411 L18.0051315,4.62345565 C19.905871,5.03785961 21.3,6.70420215 21.3,8.6554304 C21.3,10.6065319 19.9058492,12.2728485 18.0051315,12.6872481 L18.0051315,14.6266567 C18.0051315,15.1702844 17.8372132,15.6525908 17.515616,16.0144137 C17.4085887,16.1349448 17.2870548,16.2388012 17.1539078,16.3244995 C16.9669883,16.4251343 16.8176096,16.4885346 16.7057716,16.5147006 C16.595423,16.5405181 16.4115217,16.555093 16.154068,16.5584253 Z M7.28989717,6.33032576 L3.26274873,6.33032576 C2.85781337,6.33032576 2.53046875,6.65098988 2.53046875,7.0415388 L2.53046875,10.269165 C2.53046875,10.6597139 2.85781339,10.9803781 3.26274873,10.9803781 L7.28989717,10.9803781 L7.28989717,6.33032576 Z M4.49570908,16.5775672 C4.58649829,17.0218915 5.10181742,17.4357875 5.56907656,17.4357875 C5.97394955,17.4357875 6.3013565,17.115028 6.3013565,16.7245745 L6.3013565,12.7857352 L3.72166046,12.7857352 L4.49570908,16.5775672 Z M16.1745025,2.68404713 C16.1745025,2.53433156 16.1597543,2.50535714 16.1539078,2.50535714 C16.1079687,2.50535714 16.0393904,2.52212634 15.9749814,2.55004363 L9.1203659,6.00215937 L9.1203659,11.3085509 L15.961241,14.7540142 C16.0395051,14.7885789 16.1079735,14.8053467 16.1539078,14.8053467 C16.1647046,14.8053467 16.1539788,14.8115493 16.1449739,14.8189305 L16.1411057,14.8221466 C16.1524279,14.8095464 16.1633818,14.7983734 16.1745025,14.7883081 L16.1745025,2.68404713 Z M19.4695312,8.6554304 C19.4695312,7.70325784 18.8748676,6.86382761 18.0051315,6.50900123 L18.0051315,10.8017026 C18.8748544,10.4468828 19.4695312,9.6074809 19.4695312,8.6554304 Z"></path>
            </g>
        </g>
    </g>
</svg>